<svg id="outline" height="512" viewBox="0 0 512 512" width="512" xmlns="http://www.w3.org/2000/svg" fill="#125bff"><path d="m80 296a80.01006 80.01006 0 0 0 158.01758 17.77051l-15.60352-3.541a64.24524 64.24524 0 0 1 -22.21435 35.57276 63.27929 63.27929 0 0 1 -40.19971 14.19773 64.00332 64.00332 0 0 1 -7.12109-127.60889l-1.75782-15.90332a79.86223 79.86223 0 0 0 -71.12109 79.51221z"/><path d="m124.68311 272.00342-18.33985 18.33984a7.99915 7.99915 0 0 0 0 11.31348l18.33985 18.33984 11.31347-11.31347-12.6831-12.68311 12.6831-12.68311z"/><path d="m137.862 249.17h25.936v16h-25.936z" transform="matrix(.707 -.707 .707 .707 -137.669 181.976)"/><path d="m160 332.68652-12.68311-12.6831-11.31347 11.31347 18.33984 18.33985a7.99945 7.99945 0 0 0 11.31348 0l18.33984-18.33985-11.31347-11.31347z"/><path d="m185.862 297.17h25.936v16h-25.936z" transform="matrix(.707 -.707 .707 .707 -157.552 229.976)"/><path d="m152.68623 284.68629h14.62749a4 4 0 0 1 4 4v14.62749a3.99994 3.99994 0 0 1 -3.99994 3.99994h-14.62751a4 4 0 0 1 -4-4v-14.62749a3.99994 3.99994 0 0 1 3.99994-3.99994z" transform="matrix(.707 -.707 .707 .707 -162.44 199.832)"/><path d="m168 208a88 88 0 1 0 88-88 88.09957 88.09957 0 0 0 -88 88zm88-72a72 72 0 1 1 -72 72 72.08187 72.08187 0 0 1 72-72z"/><path d="m232 248h16v15.99854h16v-15.99854a23.98452 23.98452 0 0 0 17.86938-40 23.98452 23.98452 0 0 0 -17.86938-40v-16.00146h-16v16.00146h-16a7.99977 7.99977 0 0 0 -8 8v64a7.99977 7.99977 0 0 0 8 8zm32-16h-24v-16h24a8 8 0 0 1 0 16zm-24-48h24a8 8 0 0 1 0 16h-24z"/><path d="m151.12109 199.51221 1.75782-15.90332a63.99764 63.99764 0 1 1 69.53515-77.83838l15.60352-3.541a80.00794 80.00794 0 1 0 -86.89649 97.28272z"/><path d="m168 120v-24h16v-16h-48v16h16v24z"/><path d="m168 168v-24.644c18.23572-2.97321 32-15.90228 32-31.356h-16c0 8.67285-10.99072 16-24 16s-24-7.32715-24-16h-16c0 15.45374 13.76428 28.38281 32 31.356v24.644z"/><path d="m311.80029 70.19775a63.27929 63.27929 0 0 1 40.19971-14.19775 64.00332 64.00332 0 0 1 7.12109 127.60889l1.75782 15.90332a79.99766 79.99766 0 1 0 -86.89649-97.28272l15.60352 3.541a64.24524 64.24524 0 0 1 22.21435-35.57274z"/><circle cx="352" cy="120" r="8"/><circle cx="352" cy="96" r="8"/><circle cx="328" cy="120" r="8"/><circle cx="376" cy="120" r="8"/><circle cx="400" cy="120" r="8"/><circle cx="352" cy="72" r="8"/><circle cx="352" cy="168" r="8"/><circle cx="352" cy="144" r="8"/><circle cx="328" cy="96" r="8"/><circle cx="376" cy="96" r="8"/><circle cx="376" cy="144" r="8"/><path d="m488 400h-24v-200a24.02687 24.02687 0 0 0 -24-24h-16v16h16a8.00917 8.00917 0 0 1 8 8v200h-384v-200a8.00917 8.00917 0 0 1 8-8h16v-16h-16a24.02687 24.02687 0 0 0 -24 24v200h-24a7.99977 7.99977 0 0 0 -8 8v24a24.0275 24.0275 0 0 0 24 24h432a24.0275 24.0275 0 0 0 24-24v-24a7.99977 7.99977 0 0 0 -8-8zm-8 32a8.00917 8.00917 0 0 1 -8 8h-432a8.00917 8.00917 0 0 1 -8-8v-16h180.68652l5.65674 5.65674a7.99877 7.99877 0 0 0 5.65674 2.34326h64a7.99877 7.99877 0 0 0 5.65674-2.34326l5.65674-5.65674h180.68652z"/><path d="m360.87891 216.48779-1.75782 15.90332a63.99764 63.99764 0 1 1 -69.53515 77.83838l-15.60352 3.541a80.00794 80.00794 0 1 0 86.89649-97.28272z"/><path d="m346.34326 341.65674a7.99945 7.99945 0 0 0 11.31348 0l32-32a7.99929 7.99929 0 0 0 1.28906-9.626l-32-56a7.99988 7.99988 0 0 0 -13.8916 0l-32 56a7.99929 7.99929 0 0 0 1.28906 9.626zm5.65674-16.97022-16.35229-16.35223 16.35229-4.0882 16.35229 4.0882zm0-60.562 15.75269 27.56732-13.81226-3.45306a8.0041 8.0041 0 0 0 -3.88086 0l-13.81226 3.45306z"/></svg>