<?xml version="1.0" encoding="utf-8"?>
<!-- Generator: Adobe Illustrator 19.2.1, SVG Export Plug-In . SVG Version: 6.00 Build 0)  -->
<svg version="1.1" id="layer" xmlns="http://www.w3.org/2000/svg" xmlns:xlink="http://www.w3.org/1999/xlink" x="0px" y="0px"
	 viewBox="0 0 652 652" style="enable-background:new 0 0 652 652;" xml:space="preserve">
<style type="text/css">
	.st0{fill:#0A0080;}
	.st1{fill:#00BCFF;}
	.st2{fill:#FFFFFF;}
</style>
<path class="st0" d="M610.1,262.9c-10-9.9-26.1-9.9-36.1,0c-7.9,10.4-7.9,24.9,0,35.3c10,9.8,26.1,9.8,36.1,0
	C618,287.8,618,273.3,610.1,262.9z M600.2,291.4c-3.9,4.6-10.8,5.1-15.4,1.2c-0.4-0.4-0.8-0.8-1.2-1.2c-3.9-6.7-3.9-15,0-21.8
	c3.9-4.6,10.8-5.1,15.4-1.1c0.4,0.4,0.8,0.7,1.1,1.1C604.1,276.4,604.1,284.6,600.2,291.4L600.2,291.4z M508.7,258.8
	c-4.3-2.1-9-3.1-13.8-3.1c-6.3-0.7-12.5,1.7-16.9,6.2c-2.2,3-3.4,6.5-3.5,10.1h11.9c0.2-1.6,0.8-3.1,1.7-4.3
	c1.7-1.6,3.9-2.4,6.2-2.2c2.1-0.1,4.1,0.3,6,1.1c1.4,0.8,2.2,2.4,2,4c0,1.6-1.1,3.1-2.7,3.5c-1.5,0.6-3.1,0.9-4.7,1.1l-4.2,0.5
	c-3.8,0.3-7.5,1.4-10.9,3.1c-4.5,2.5-7.1,7.4-6.8,12.6c-0.2,3.9,1.3,7.7,4.2,10.4c3,2.4,6.8,3.7,10.7,3.7
	c26.9,1.2,26.6-14.1,26.8-17.4v-17.7C515.4,265.7,513,261,508.7,258.8z M502.5,285.6c0.3,3.2-1,6.4-3.5,8.5
	c-2.2,1.5-4.8,2.3-7.4,2.3c-1.6,0-3.1-0.5-4.3-1.4c-1.3-1.2-2-2.9-1.8-4.7c-0.1-2.1,1-4.2,2.9-5.2c1.8-0.9,3.7-1.4,5.7-1.7l2.8-0.5
	c1.1-0.2,2.2-0.5,3.3-0.8c0.8-0.3,1.6-0.7,2.4-1.2L502.5,285.6L502.5,285.6z M447.4,266.2c2.6-0.2,5.1,0.9,6.8,2.9
	c1,1.4,1.6,3,1.9,4.7h13.3c-0.1-5.5-2.7-10.7-7-14.1c-4.6-2.8-9.9-4.2-15.3-3.9c-6.4-0.4-12.7,2.1-17.2,6.7
	c-4.4,5.2-6.7,11.9-6.2,18.8c-0.3,6.3,1.7,12.5,5.6,17.4c4.5,4.8,11,7.3,17.6,6.7c7,0.5,13.7-2.6,18.1-8.1c2.4-3,3.9-6.7,4.3-10.6
	H456c-0.2,2.2-1,4.3-2.3,6.1c-1.7,1.7-4.1,2.6-6.5,2.3c-3.9,0.2-7.5-2.2-8.7-5.9c-0.9-2.7-1.4-5.5-1.3-8.3c-0.1-2.9,0.3-5.9,1.3-8.7
	C439.7,268.5,443.4,266,447.4,266.2z M419.9,255.9c-27.3,0-25.6,24.1-25.6,24.1v24.5h12.4v-23c-0.2-2.9,0.3-5.7,1.4-8.4
	c2.1-3.4,6-5.2,10-4.7h1.5h2.1v-12.6h-1.1L419.9,255.9L419.9,255.9z M374.6,291.7c-0.5,0.7-1,1.3-1.7,1.9c-2,1.4-4.5,2.1-6.9,1.9
	c-2.3,0.1-4.6-0.4-6.6-1.6c-3.3-2.2-5.2-5.9-5-9.8h34.2c0.1-3.1,0-6.3-0.4-9.4c-0.5-3.5-1.8-6.8-3.8-9.7c-2-3-4.8-5.5-8.1-6.9
	c-3.5-1.5-7.2-2.3-11-2.2c-6.3-0.2-12.3,2.1-16.8,6.5c-4.6,5.1-7,11.9-6.5,18.8c-0.6,7,2,14,7.2,18.8c4.7,3.8,10.5,5.9,16.6,5.8
	c6.6,0.4,13.1-2.1,17.7-6.9c2-2,3.5-4.4,4.3-7.1L374.6,291.7L374.6,291.7z M358,268.6c2-1.9,4.6-2.8,7.3-2.7
	c2.7-0.1,5.2,0.8,7.3,2.5c2.1,1.9,3.3,4.6,3.3,7.4h-21.2C355,273.2,356.2,270.7,358,268.6L358,268.6z M337.1,304.5H326V276
	c0.5-4.4-2.7-8.3-7-8.7c-0.4,0-0.9-0.1-1.3,0c-4.6-0.1-8.4,3.5-8.6,8.1c0,0.2,0,0.5,0,0.7v28.4h-11.3V276c0.5-4.3-2.6-8.2-6.9-8.7
	c-0.4,0-0.9-0.1-1.3,0c-4.6-0.2-8.4,3.4-8.6,7.9c0,0.3,0,0.6,0,0.9v28.4h-11.4v-28.2c-0.7-10.7,7.4-19.9,18.1-20.6
	c0.6,0,1.2,0,1.7,0c5.5-0.1,10.7,2.3,14.1,6.6c3.5-4.2,8.6-6.6,14.1-6.6c12.3,0,19.6,8.5,19.6,20.6v28.2H337.1z M564.3,241.2
	c0,0-12.4-1.3-12.4,8.7v13.2c-1.3-2.2-3.2-4-5.4-5.2c-2.3-1.3-4.9-1.9-7.6-1.9c-5.7-0.2-11.2,2.4-14.8,6.9c-4,5.6-5.9,12.4-5.5,19.2
	c-0.3,6.2,1.7,12.3,5.6,17.1c4.8,4.5,11.1,6.8,17.6,6.4c22.8,0,22.5-19.5,22.5-19.5L564.3,241.2L564.3,241.2z M549.5,291.7
	c-1.8,2.6-4.8,4.1-7.9,3.9c-3.1,0.2-6.1-1.3-7.8-3.9c-1.9-3.3-2.8-7-2.6-10.7c-0.1-3.5,0.8-7,2.5-10.1c1.7-2.7,4.7-4.3,7.9-4.1
	c2.3,0,4.5,0.8,6.2,2.3c3.2,3.4,4.8,8,4.4,12.7c0.1,3.5-0.8,6.9-2.7,9.8V291.7z M282.1,383c0,1.6-0.6,3.2-1.8,4.3
	c-1.1,1.2-2.7,1.8-4.4,1.8h-6.2v-43c-0.5-6.6,2.3-13,7.5-17.1c4.7-3.4,10.4-5.1,16.2-4.7c6.1-0.1,12,2.3,16.2,6.7
	c4.1,5,6.1,11.4,5.8,17.9c0.3,6.5-1.6,13-5.4,18.3c-3.3,4.4-8.6,6.9-14.1,6.8c-2.7,0.1-5.5-0.5-8-1.6c-2.5-1.2-4.5-3.2-5.8-5.6v16.1
	L282.1,383z M302.8,349.5c0.2-3.8-0.7-7.5-2.7-10.7c-1.8-2.5-4.8-3.9-7.8-3.8c-3-0.1-5.9,1.3-7.7,3.8c-1.9,3.2-2.8,7-2.5,10.7
	c-0.3,3.6,0.7,7.2,2.7,10.2c1.8,2.5,4.8,3.9,7.8,3.8c3,0.1,5.8-1.3,7.5-3.8C302.1,356.7,303,353.1,302.8,349.5 M397.3,370.1v-3.1
	c-1.9,3.2-5,5.5-8.6,6.3c-3.6,0.8-7.4,0.5-10.8-0.9c-3.9-1.6-7.2-4.4-9.4-8c-2.8-4.6-4.1-10-3.8-15.3c-0.3-6.4,1.5-12.7,5.1-18
	c4-4.8,10.1-7.3,16.3-6.9c5.7-0.5,11.4,1.2,15.9,4.7c5.1,4.2,7.9,10.6,7.3,17.2v25.3c0.4,11.7-8.8,21.4-20.4,21.8
	c-0.9,0-1.9,0-2.8-0.1c-9.6,0.3-18-6.1-20.4-15.4h13c2.1,3.5,6.2,5.4,10.3,4.7c2.1-0.5,4-1.8,5.4-3.5c1.8-2.5,2.8-5.5,2.8-8.6
	 M376.7,349.6c0,8.3,2.4,12.8,7.1,13.7c3.9,1.2,8-0.1,10.5-3.3c1.3-1.8,2.1-4,2.3-6.2c0.4-2.8,0.4-5.6,0-8.4c-0.4-2.7-1.4-5.2-3-7.4
	c-1.6-2.2-4.1-3.4-6.8-3.2c-3.5-0.3-6.7,1.6-8.2,4.7c-1.5,3.2-2.2,6.7-2.2,10.2 M354.2,327.6c-4.3-2.1-9-3.1-13.8-3.1
	c-6.3-0.7-12.5,1.7-16.9,6.2c-2.2,3-3.4,6.5-3.5,10.2H332c0.2-1.6,0.8-3.1,1.7-4.3c1.7-1.6,3.9-2.4,6.2-2.2c2.1-0.1,4.1,0.3,6,1.1
	c1.4,0.8,2.2,2.4,2,4c0,1.6-1.1,3.1-2.7,3.5c-1.5,0.6-3.1,0.9-4.7,1.1l-4.2,0.5c-3.8,0.3-7.5,1.4-10.9,3.1
	c-4.5,2.5-7.1,7.4-6.8,12.6c-0.2,3.9,1.3,7.7,4.2,10.4c3,2.4,6.8,3.7,10.7,3.7c26.9,1.2,26.6-14.1,26.8-17.4v-17.7
	c0.5-4.7-1.9-9.3-6-11.6 M348.2,354.6c0.3,3.2-1,6.4-3.5,8.5c-2.2,1.5-4.8,2.3-7.4,2.3c-1.6,0-3.1-0.5-4.3-1.4
	c-1.3-1.2-2-2.9-1.8-4.7c-0.1-2.1,1-4.2,2.9-5.2c1.8-0.9,3.7-1.4,5.7-1.7l2.8-0.5c1.1-0.2,2.2-0.5,3.3-0.8c0.8-0.3,1.6-0.7,2.4-1.2
	L348.2,354.6L348.2,354.6z M456.2,331.6c-10-9.9-26.1-9.9-36.1,0c-7.9,10.4-7.9,24.9,0,35.3c10.1,9.8,26,9.8,36.1,0
	C464.1,356.4,464.1,342,456.2,331.6 M446.4,360.1c-3.9,4.6-10.8,5.1-15.4,1.2c-0.4-0.4-0.8-0.8-1.2-1.2c-3.9-6.7-3.9-15,0-21.7
	c3.9-4.6,10.8-5.1,15.4-1.2c0.4,0.4,0.8,0.8,1.2,1.2C450.2,345.1,450.2,353.3,446.4,360.1"/>
<path class="st1" d="M233.7,317.9c0,39.6-48.3,71.7-107.8,71.7c-59.5,0-107.8-32.1-107.8-71.7c0-39.6,48.3-71.8,107.8-71.8
	C185.4,246.2,233.7,278.3,233.7,317.9L233.7,317.9z M233.7,317.9"/>
<path class="st2" d="M231.6,314.8c-29.5-4.8-66.3,11-70.7,12.7l-2.4,1l1-2.4c1.7-4.8,2.7-18.2,2.1-28.1c-0.7-10,3.1-19.6,4.8-24
	l0.3-1c1.4-3.8,3.1-3.8,5.1-3.4c0.7,0,1.4,0.4,2.1,0.4c3.1,0,6.9-1.4,9.6-2.8c1.4-0.7,2.7-1.4,4.4-1.4c1-0.3,2.1-0.3,2.8-0.7
	c1-0.3,2.1-0.7,3.1-0.7c3.8-0.3,6.5-1,6.5-3.8c0-0.3,0-1-0.7-1.4c-0.7-0.3-1.7-0.7-4.8,0h-0.3c-1.4,0.4-4.5,1-1.7-1.4
	c0-0.4,0.3-0.4,0.3-0.4c1-0.7,2.1-2.4,2.8-3.4c0.3-0.3,0.7-1,0.3-1.7c-0.3-2.1-3.4-4.1-6.9-6.2c-0.7-0.3-1.4-1-2.1-1.4
	c-1.7-1.4-5.8-4.5-7.6-2.8c-2.4,2.1-11.7,11-17.2,17.2c-5,5.7-9.1,12.1-12.4,18.9l-1.4,3.1c-3.1,6.9-7.9,17.5-12.7,28.8l-2.1,5.1
	c-0.3,0.7-0.3,1-0.7,1.7c-4.1,9.3-9.6,20.9-5.8,27.1c1.7,2.7,5.1,4.5,10.3,4.8c31.9,2.7,39.8,2.1,58.4-0.4c3.4-0.3,6.5-1,10-1.7
	c1.4-0.3,2.7-0.7,4.1-0.7c1,0,1.7,0,2.8,0.3c1.7,0.7,2.4,1.7,3.1,3.1l0.7,1l1-1c5.8-6.5,9.9-13.7,12.4-21.3c1-4.5,1.4-8.9,1.7-11
	v-2.4H231.6z M115.2,314.8c-0.7-1.7-1.7-3.4-2.1-5.1c-4.8-11.7-9.6-22.3-12.7-29.2l-1.4-2.8c-3.8-7.9-7.5-14.1-12.4-18.9
	c-5.5-5.8-14.7-15.1-17.2-17.2c-2.1-1.7-6.2,1.7-7.5,2.8c-0.7,0.3-1.4,1-2.1,1.4c-3.4,2.1-6.5,4.1-6.9,6.2c0,0.7,0,1.4,0.3,1.7
	c0.3,0.7,1,1.7,1.7,2.4c0.3,0.3,0.7,0.3,1,0.7h0.4c2.7,2.4,2.4,3.1,2.1,2.8c-1.4-0.7-2.4-1-3.4-1h-0.3c-3.4-0.7-4.5-0.3-5.1,0
	c-0.7,0.3-0.7,1-0.7,1.4c0,2.7,3.1,3.4,6.9,3.8c1,0,2.1,0.3,3.1,0.7c1,0.4,1.7,0.7,2.8,0.7c1.4,0.3,3.1,0.7,4.4,1.4
	c2.8,1.4,6.5,3.1,9.6,2.7c0.7,0,1.4,0,2.1-0.3c2.1-0.3,3.8-0.3,5.1,3.4l0.3,1c1.7,4.4,5.5,14.1,4.8,24c-0.7,9.9,0.3,23.3,2.1,28.1
	l1,2.4l-2.4-1c-3.8-1.7-39.1-17.2-68.3-12.4h-0.7v5.1c1,9.6,5.1,19.2,12.7,27.8l0.7,1l0.7-1c0.7-1,1.4-1.4,2.4-2.1
	c2.4-0.7,3.8-0.4,6.9,0.3c3.4,0.7,6.9,1.4,10,1.7c10.3,1.4,17.2,2.1,26.4,2.1c7.9,0,17.5-0.7,31.9-1.7c5.1-0.3,8.6-2.1,10.3-4.8
	c3.8-6.5-1.4-17.8-5.8-27.5C115.6,315.8,115.6,315.2,115.2,314.8L115.2,314.8z M115.2,314.8"/>
<path class="st0" d="M214.4,352.6c-0.7,0.3-1,1-1.7,1.4l-0.4,0.3c-0.7,0.3-1,1-1.7,1.4c-0.7,0.7-1.4,1-2.1,1.7
	c-0.7,0.3-1.4,1-1.7,1.4l-0.3,0.4c-0.7,0.3-1.4,1-1.7,1.4c0,0-0.3,0-0.3,0.4c-0.7,0.3-1.4,1-2.1,1.4c-0.7,0.4-1.4,1-2.1,1.4
	l-0.3,0.3l-2.1,1c0,0-0.3,0-0.3,0.3c-1.7,1-3.1,1.7-4.8,2.8c-0.3,0-0.3,0.3-0.3,0.3l-2.1,1c-0.4,0-0.4,0.3-0.4,0.3
	c-1.7,0.7-3.4,1.7-5.1,2.4c-0.3,0-0.3,0.3-0.7,0.3c-0.7,0.4-1.4,0.7-2.1,0.7c-0.3,0-0.3,0.3-0.7,0.3c-0.7,0.3-1.7,0.7-2.7,1
	c-1,0.3-1.7,0.7-2.8,1c-0.3,0-0.3,0-0.7,0.3c-0.7,0.4-1.4,0.4-2.1,0.7c-0.4,0-0.4,0.3-0.7,0.3c-0.7,0.3-1.7,0.3-2.4,0.7h-0.3
	c-1,0.4-1.7,0.7-2.8,0.7c-0.3,0-0.3,0-0.7,0.3c-0.7,0.3-1.4,0.3-2.4,0.7c-0.3,0-0.7,0-0.7,0.4c-0.7,0.3-1.7,0.3-2.4,0.7h-0.7
	c-1,0.3-2.1,0.3-3.1,0.7h-0.7c-0.7,0.4-1.7,0.4-2.4,0.4c-0.3,0-0.7,0-1,0.3c-0.7,0-1.7,0.3-2.4,0.3h-0.7c-1,0.3-2.1,0.3-3.1,0.3
	h-0.7c-0.7,0-1.7,0.3-2.8,0.3h-1c-0.7,0-1.7,0.4-2.4,0.4h-1c-1,0-2.1,0.3-3.1,0.3h-18.5c-1,0-2.1,0-3.1-0.3h-0.3c-1,0-2.1,0-3.1-0.4
	h-1c-0.7,0-1.7,0-2.4-0.3h-1c-1,0-2.1-0.3-3.1-0.3h-0.3c-1,0-1.7-0.3-2.8-0.3h-1c-0.7,0-1.7-0.3-2.4-0.3H96c-1-0.4-2.1-0.4-3.1-0.7
	h-0.3c-0.7-0.3-1.7-0.3-2.4-0.7c-0.3,0-0.7,0-1-0.3c-0.7-0.4-1.4-0.4-2.1-0.7c-0.3,0-0.3,0-0.7-0.3c-1-0.3-2.1-0.3-2.8-0.7h-0.7
	c-0.7-0.4-1.7-0.4-2.4-0.7c-0.4,0-0.7-0.3-0.7-0.3c-0.7-0.3-1.4-0.3-2.1-0.7c-0.3,0-0.3,0-0.7-0.4c-1-0.3-1.7-0.7-2.8-1
	c-0.3,0-0.3,0-0.7-0.3c-0.7-0.4-1.4-0.7-2.1-0.7c-0.3,0-0.7-0.3-0.7-0.3c-0.7-0.3-1.4-0.7-2.1-0.7c-0.3,0-0.3,0-0.7-0.4
	c-0.7-0.3-1.7-0.7-2.7-1c-0.3,0-0.3-0.3-0.7-0.3l-2.1-1c-0.3,0-0.3-0.3-0.7-0.3l-2.1-1c0,0-0.4,0-0.4-0.3c-0.7-0.3-1.7-0.7-2.4-1.4
	c-0.3,0-0.3-0.3-0.7-0.3c-0.7-0.3-1.4-0.7-1.7-1c-0.4,0-0.4-0.3-0.7-0.3l-2.1-1c0,0-0.3,0-0.3-0.4c-0.7-0.3-1.4-1-2.1-1.4
	c-0.4,0-0.4-0.4-0.7-0.4c-0.7-0.3-1-0.7-1.7-1c-0.3,0-0.3-0.3-0.7-0.3c-0.7-0.4-1.4-0.7-1.7-1.4c0,0-0.3,0-0.3-0.3
	c-0.7-0.4-1.4-1-2.1-1.4c-0.3,0-0.3-0.3-0.3-0.3c-0.3-0.4-1-0.7-1.4-1.4c-0.3,0-0.3-0.3-0.7-0.3c-0.7-0.4-1-1-1.7-1.4
	c-0.7-0.7-1.4-1-1.7-1.7c-0.3,0-0.3-0.3-0.3-0.3l-1.7-1.7l-0.3-0.4c0.7-1,1-1.4,1.4-1.7c1.4-0.7,2.1-0.3,5.1,0.4
	c3.4,0.7,6.9,1.4,10.3,1.7c18.5,2.4,26.8,3.1,59.1,0.3c6.2-0.7,10.3-2.8,12.4-6.5c0.3-0.3,0.3-0.7,0.7-1.4c0.4,0.3,0.4,0.7,0.7,1.4
	c2.1,3.8,6.5,5.8,12.4,6.5c32.3,2.7,40.5,2.1,59-0.3c3.4-0.4,6.9-1,10.3-1.7c3.1-0.7,3.8-0.7,5.1-0.4c0.7,0.4,1,0.7,2.1,2.8
	C214.8,352.2,214.8,352.2,214.4,352.6C214.4,352.2,214.4,352.2,214.4,352.6L214.4,352.6z M217.2,282.2l0.7,0.7
	c0.7,0.7,1,1.4,1.7,2.1c0.3,0.4,0.3,0.4,0.3,0.7c0.3,0.3,0.7,0.7,0.7,1c0.3,0.4,0.3,0.4,0.3,0.7c0.4,0.3,0.7,0.7,0.7,1
	c0.3,0.4,0.3,0.4,0.3,0.7c0.7,1.4,1.7,2.4,2.4,3.8c0,0.3,0.4,0.3,0.4,0.7c0.3,0.4,0.3,0.7,0.7,1c0,0.3,0.3,0.3,0.3,0.7
	c0.3,0.4,0.3,0.7,0.7,1c0,0.3,0.3,0.3,0.3,0.7c0.3,0.7,0.7,1.7,1,2.4c0,0.3,0,0.3,0.4,0.3c0,0.3,0.3,0.7,0.3,1
	c0,0.3,0.3,0.7,0.3,0.7c0,0.3,0.3,0.7,0.3,1c0,0.3,0.3,0.7,0.3,0.7c0,0.3,0.4,0.7,0.4,1c0,0.3,0,0.7,0.3,0.7
	c0.3,0.7,0.3,1.4,0.3,2.1c0,0.3,0,0.7,0.3,0.7c0,0.3,0,0.7,0.3,1v2.1c-9.6-1.4-24.7-1.4-46.3,4.5c-7.5,3.1-14.4,5.1-21.6,8.2
	c1.4-6.9,1.7-17.5,1-25.4c-0.7-8.9,2.8-17.8,4.8-22.7l0.3-1c0.4-0.7,0.4-1.4,1-1.7h1c0.7,0,1.7,0.3,2.4,0.3c4.5,0.4,9.6-2.4,11-3.1
	c1-0.7,2.4-1,3.8-1.4c1-0.3,2.1-0.7,3.4-1c0.7-0.3,1.4-0.3,2.4-0.3c1,0,2.4-0.3,3.8-0.7C205.5,271.2,212,276.4,217.2,282.2
	L217.2,282.2z M180.8,242.4c1-0.7,3.4,0.3,6.5,2.7c0.7,0.7,1.4,1,2.1,1.4c2.1,1.4,6.2,3.8,6.5,5.5c0,0.3,0,0.7-0.3,1v0.3
	c-0.7,1-1.7,2.8-2.4,3.1l-0.7,0.7c-1.4,1.4-3.4,2.8-4.1,2.8c-2.1-0.3-3.4-0.7-5.1-1.4c1-4.1,2.4-3.1,5.1-1.7c0-0.7-0.3-1-0.3-1.7
	l2.1-1l-2.4-0.3c-0.3-1.7-0.3-3.1-0.3-4.8c-0.7,1-0.7,2.1-1,2.8c-0.3,0.7-1,1.4-1.4,1.7l-1.4-1.4c-0.7-0.7-1.7-1.4-2.4-1.7
	c0,0.3-0.3,0.3-0.3,0.3c2.4,3.4,2.4,4.1-0.3,7.2c-2.4,2.7-4.8,4.8-7.2,7.2c1.7,1,3.8,0.3,6.2-2.1c3.1-3.4,3.1-3.4,7.2-1.7l0.7,0.3
	c1.7,0.7,2.7-0.3,4.4-1c1-0.3,2.4-1,3.4-1h0.4c2.4-0.4,3.8-0.4,4.1,0c0,0,0.3,0.3,0.3,0.7c0,1.7-1.4,2.4-5.8,2.8
	c-1,0-2.1,0.3-3.4,0.7c-1,0.3-1.7,0.7-2.8,0.7c-1.7,0.4-3.1,0.7-4.4,1.7c-2.8,1.4-6.2,2.8-8.9,2.8c-0.7,0-1.4,0-1.7-0.3
	c-2.4-0.3-4.4-0.3-6.2,4.1l-0.3,1c-1.7,4.8-5.5,14.4-5.1,24.4c0.7,10-0.4,23.4-2.1,27.8l-2.4,4.5l4.5-2.1c0.3-0.4,39.5-17.5,70-12.7
	v1.4c-0.3,2.8-0.7,6.9-1.7,11c-2.1,7.6-6.2,14.8-12,21c-0.7-1.7-1.7-2.8-3.8-3.4c-1-0.4-2.1-0.7-3.1-0.7c-1.4,0-3.1,0.3-4.4,0.7
	c-3.4,0.7-6.5,1.4-10,1.7c-18.2,2.4-26.4,3.1-58.4,0.3c-4.8-0.3-7.9-2.1-9.6-4.5c-3.4-5.8,1.7-17.2,5.8-26.4c1-2.4,2.1-4.8,3.1-6.9
	c5.1-12.7,10.3-24,13.4-30.6l0.7-1.4c3.8-7.9,7.5-13.7,12-18.9C169.1,253.4,178.4,244.4,180.8,242.4L180.8,242.4z M125.9,248.6
	c13.7,0,26.8,1.7,38.4,4.8c-1.4,1.4-2.4,2.4-3.4,3.8c-5.3,5.9-9.6,12.6-12.7,19.9l-0.7,1.4c-3.1,6.9-8.6,18.2-13.4,30.9
	c-0.7,2.1-1.7,4.1-2.8,6.5c-2.4,5.1-4.8,10.7-6.2,16.1c-1.4-5.5-4.1-11-6.2-16.1l-2.8-6.5c-5.1-12.7-10.3-24-13.4-30.9l-0.7-1.4
	c-3.8-8.2-7.9-14.4-12.7-19.9c-1-1-2.1-2.1-3.1-3.4C98.1,250.3,111.4,248.6,125.9,248.6L125.9,248.6z M50.3,259.9
	c0.3-0.3,2.1-0.3,4.1,0h0.7l3.1,1c1.7,1,2.7,1.7,4.4,1c0.3,0,0.7-0.3,0.7-0.3c4.1-1.4,4.1-1.4,7.2,1.7c2.4,2.7,4.4,3.1,6.2,2.1
	c-2.4-2.4-5.1-4.8-7.2-7.2c-2.7-3.1-2.7-4.1-0.3-7.2c0-0.4-0.3-0.4-0.3-0.4c-0.7,0.7-1.7,1-2.4,1.7l-1.4,1.4c-0.7-0.7-1.4-1-1.4-1.7
	c-0.3-0.7-0.3-1.7-1-2.7c0,1.4-0.3,3.1-0.3,4.8l-2.4,0.7l2.1,1l-0.3,1.4c2.4-1.7,4.1-2.7,5.1,1.7c-1.7,0.7-3.4,0.7-5.1,1.4
	c-0.7,0.3-2.8-1.4-4.5-2.8c0-0.3-0.3-0.3-0.3-0.3l-1-1c-0.7-0.7-1-1.7-1.4-2.1v-0.3c-0.3-0.3-0.3-0.7-0.3-1c0.3-1.7,4.5-4.5,6.5-5.5
	c0.7-0.3,1.4-1,2.1-1.4c2.8-2.4,5.5-3.8,6.5-2.8c2.4,2.1,11.3,11,17.2,16.8c4.5,4.8,8.2,11,12,18.9l0.7,1.4
	c3.1,6.9,8.6,18.2,13.4,30.5c0.7,2.1,1.7,4.5,3.1,6.9c4.1,9.3,9.3,20.6,5.8,26.4c-1.4,2.7-4.8,4.1-9.6,4.5
	c-31.9,2.8-39.8,2.1-58.4-0.3c-3.4-0.3-6.5-1-10-1.7c-3.1-0.7-4.8-1-7.5-0.3c-1.4,0.3-2.1,1.4-2.8,2.4c-6.9-8.2-11.3-17.5-12.4-27.5
	v-4.5c30.6-5.1,67.6,12,68,12.4l4.5,2.1l-1.7-4.5c-1.7-4.5-2.8-17.9-2.1-27.8c0.7-9.9-3.1-19.6-5.1-24.4l-0.3-1
	c-1.7-4.5-3.8-4.5-6.2-4.1c-0.7,0-1.4,0.3-1.7,0.3c-2.8,0-6.5-1.4-8.9-2.7c-1.4-0.7-3.1-1.4-4.5-1.7c-1-0.3-1.7-0.3-2.7-0.7
	c-1-0.3-2.1-0.7-3.4-0.7c-4.5-0.7-5.8-1.4-5.8-2.8C50,260.2,50,259.9,50.3,259.9L50.3,259.9z M53.1,266.7c0.7,0.3,1.7,0.3,2.4,0.3
	c0.7,0,1.7,0.3,2.4,0.3c1,0.3,2.1,0.7,3.4,1c1.4,0.3,2.4,0.7,3.8,1.4c1.4,0.7,6.5,3.4,11,3.1c0.7,0,1.7,0,2.4-0.3h1
	c0,0,0.3,0.3,1,1.7l0.3,1c1.7,4.8,5.5,13.7,4.8,22.7c-0.7,7.9-0.4,18.5,1,25.4c-10.3-4.5-39.8-15.1-65.9-11c0.3-2.7,0.7-5.1,1.4-7.9
	v-0.3c0-0.4,0.3-0.7,0.3-1c0-0.3,0.3-0.7,0.3-1v-0.3c0.7-2.1,1.7-4.4,2.8-6.5c0,0,0-0.3,0.3-0.3c0,0,0-0.3,0.3-0.3
	c0.3-0.3,0.3-0.7,0.7-1C31.8,283.2,41.1,274.3,53.1,266.7L53.1,266.7z M202.4,264.3c0.7-1,1.4-2.1,1.4-3.4c0-1.4-0.7-2.7-1.7-3.8
	c-1-0.7-2.1-1-3.4-1c0,0,0-0.4,0.4-0.4c0.7-1,1-2.4,0.7-3.8c-0.7-3.4-5.1-6.2-8.2-8.2c-0.7-0.3-1.4-0.7-1.7-1
	c-6.2-5.1-9.6-4.5-11.3-3.1c-1.7,1.4-5.8,5.5-10.3,10c-13.1-3.4-27.5-5.5-42.2-5.5c-15.4,0-30.2,2.1-43.6,5.8
	c-4.5-4.5-8.9-8.6-10.7-10.3c-1.7-1.4-5.5-2.4-11.3,3.1c-0.3,0.3-1,0.7-1.7,1c-3.1,1.7-7.6,4.5-8.2,8.2c-0.3,1.4,0,2.8,0.7,3.8
	c0,0,0,0.4,0.4,0.4c-1.4,0-2.4,0.3-3.4,1c-1,1-1.7,2.1-1.7,3.8c0,2.1,0.7,3.1,1.7,4.1C28.4,277.7,16,295.9,16,315.5v4.5
	c0,41.9,42.9,75.9,109.9,75.9c67.3,0,109.9-34,109.9-75.9v-4.1C235.7,295.6,223,277.4,202.4,264.3L202.4,264.3z M202.4,264.3"/>
</svg>
